<svg width="102" height="102" viewBox="0 0 102 102" fill="none" xmlns="http://www.w3.org/2000/svg">
<path d="M78.8693 37.5529C78.8905 37.5074 78.9026 37.4619 78.9178 37.4133C78.933 37.3648 78.9512 37.3193 78.9633 37.2678C78.9724 37.2253 78.9754 37.1828 78.9815 37.1404C78.9906 37.0827 78.9967 37.0251 78.9997 36.9675C78.9997 36.9584 78.9997 36.9493 78.9997 36.9371C78.9997 21.4285 66.3878 8.80444 50.8791 8.7832C50.8791 8.7832 50.8518 8.7832 50.8397 8.7832H50.8245C35.3038 8.7923 22.6797 21.4194 22.6797 36.9432C22.6797 36.9523 22.6797 36.9614 22.6797 36.9705C22.6797 37.0281 22.6888 37.0858 22.6979 37.1434C22.704 37.1859 22.707 37.2283 22.7161 37.2678C22.7282 37.3163 22.7464 37.3648 22.7616 37.4133C22.7767 37.4588 22.7889 37.5074 22.8101 37.5529C22.8283 37.5923 22.8526 37.6287 22.8738 37.6681C22.9011 37.7167 22.9284 37.7682 22.9587 37.8137C22.9648 37.8228 22.9678 37.8319 22.9739 37.838L37.8911 58.133C33.6568 61.7789 30.9663 67.1749 30.9663 73.1866C30.9663 84.1425 39.8808 93.057 50.8367 93.057C61.7925 93.057 70.707 84.1425 70.707 73.1866C70.707 67.1718 68.0196 61.7789 63.7853 58.133L78.7024 37.835C78.7024 37.835 78.7115 37.8168 78.7176 37.8107C78.751 37.7652 78.7752 37.7136 78.8056 37.6651C78.8268 37.6257 78.8511 37.5893 78.8693 37.5498V37.5529ZM45.9047 12.3078C39.3349 18.8655 39.5199 26.7275 39.532 27.1157C39.5623 27.9347 40.2327 28.5747 41.0456 28.5747C41.0638 28.5747 41.0789 28.5747 41.0971 28.5747C41.9313 28.5474 42.5895 27.8467 42.5652 27.0126C42.5531 26.6365 42.4075 17.9373 50.9671 12.0378C56.0386 14.7252 57.8494 22.1079 57.8676 22.1838C58.0314 22.8814 58.6562 23.3515 59.3417 23.3515C59.4569 23.3515 59.5722 23.3394 59.6905 23.3121C60.5064 23.121 61.013 22.3051 60.8219 21.4892C60.7551 21.2041 59.5419 16.2084 56.1599 12.3805C65.6568 14.434 73.173 21.8714 75.3387 31.3258C73.5369 30.2611 71.1953 29.6272 68.605 29.6272C64.8014 29.6272 61.5347 30.9951 59.7239 33.082C57.9131 30.9921 54.6463 29.6272 50.8427 29.6272C47.0391 29.6272 43.7724 30.9951 41.9616 33.082C40.1508 30.9921 36.884 29.6272 33.0804 29.6272C30.4901 29.6272 28.1515 30.2611 26.3498 31.3258C28.5398 21.75 36.2289 14.2429 45.9047 12.3078ZM50.8397 53.3193C49.7356 53.3193 48.6528 53.4134 47.6003 53.5893L43.4842 36.7885C43.6298 34.5379 46.939 32.6664 50.8427 32.6664C54.7464 32.6664 58.0556 34.5409 58.2012 36.7915L54.0852 53.5923C53.0296 53.4194 51.9468 53.3224 50.8427 53.3224L50.8397 53.3193ZM25.7553 36.5004C26.1496 34.3802 29.3436 32.6634 33.0774 32.6634C37.0691 32.6634 40.442 34.6228 40.442 36.9432C40.442 36.9523 40.442 36.9614 40.442 36.9705C40.442 37.0221 40.4511 37.0736 40.4571 37.1252C40.4632 37.1768 40.4662 37.2283 40.4784 37.2799C40.4784 37.289 40.4784 37.2981 40.4814 37.3042L44.649 54.3142C43.1203 54.8177 41.6704 55.5002 40.3297 56.3373L25.7553 36.5004ZM67.6769 73.1897C67.6769 82.4742 60.1242 90.0268 50.8397 90.0268C41.5551 90.0268 34.0025 82.4742 34.0025 73.1897C34.0025 63.9051 41.5551 56.3525 50.8397 56.3525C60.1242 56.3525 67.6769 63.9051 67.6769 73.1897ZM57.0274 54.3112L61.195 37.3011C61.195 37.3011 61.195 37.2829 61.198 37.2738C61.2101 37.2253 61.2132 37.1737 61.2192 37.1222C61.2253 37.0706 61.2344 37.016 61.2344 36.9644C61.2344 36.9553 61.2344 36.9462 61.2344 36.9402C61.2344 34.6198 64.6073 32.6604 68.5989 32.6604C72.3358 32.6604 75.5267 34.3771 75.921 36.4973L61.3405 56.3343C59.9999 55.4941 58.55 54.8116 57.0213 54.3112H57.0274Z" fill="white"/>
<path d="M50.8394 58.77C42.8864 58.77 36.4167 65.2398 36.4167 73.1928C36.4167 81.1458 42.8864 87.6155 50.8394 87.6155C58.7924 87.6155 65.2622 81.1458 65.2622 73.1928C65.2622 65.2398 58.7924 58.77 50.8394 58.77ZM50.8394 85.4134C44.0997 85.4134 38.6187 79.9325 38.6187 73.1928C38.6187 66.4531 44.0997 60.9721 50.8394 60.9721C57.5791 60.9721 63.0601 66.4531 63.0601 73.1928C63.0601 79.9325 57.5791 85.4134 50.8394 85.4134Z" fill="white"/>
</svg>
