<svg width="11" height="11" viewBox="0 0 11 11" fill="none" xmlns="http://www.w3.org/2000/svg">
<g id="Layer_1" clip-path="url(#clip0_443_932)">
<g id="info">
<path id="Vector" d="M5.5 11C2.46964 11 0 8.53036 0 5.5C0 2.46964 2.46964 0 5.5 0C8.53036 0 11 2.46964 11 5.5C11 8.53036 8.53036 11 5.5 11ZM5.5 0.630011C2.81615 0.630011 0.630011 2.81615 0.630011 5.5C0.630011 8.18385 2.81615 10.37 5.5 10.37C8.18385 10.37 10.37 8.18385 10.37 5.5C10.37 2.81615 8.18385 0.630011 5.5 0.630011Z" fill="white"/>
<path id="Vector_2" d="M5.44332 3.70444C5.19131 3.70444 5.00231 3.64774 4.87631 3.54064C4.7503 3.43353 4.6936 3.26973 4.6936 3.06183C4.6936 2.85392 4.7566 2.68382 4.87631 2.57042C4.99601 2.45702 5.18501 2.40662 5.44332 2.40662C5.70162 2.40662 5.88433 2.46332 6.01033 2.57042C6.13633 2.67752 6.19303 2.84132 6.19303 3.06183C6.19303 3.28233 6.13003 3.43353 6.01033 3.54064C5.89063 3.64774 5.69532 3.70444 5.44332 3.70444ZM6.04183 4.34075V8.75083H4.83221V4.34075H6.04183Z" fill="white"/>
</g>
</g>
<defs>
<clipPath id="clip0_443_932">
<rect width="11" height="11" fill="white"/>
</clipPath>
</defs>
</svg>
