<svg width="102" height="102" viewBox="0 0 102 102" fill="none" xmlns="http://www.w3.org/2000/svg">
<path d="M62.6448 32.6704V32.1185C62.6448 25.1462 52.6206 19.6802 39.8224 19.6802C27.0242 19.6802 17 25.1462 17 32.1223V59.3741C17 66.3501 27.0242 71.8162 39.8224 71.8162C39.9456 71.8162 40.0688 71.8124 40.192 71.8087C44.6684 77.5879 51.676 81.3202 59.5423 81.3202C73.0275 81.3202 84 70.362 84 56.8946C84 44.4749 74.6702 34.1991 62.6448 32.6741V32.6704ZM39.8224 23.0619C51.4483 23.0619 59.2586 27.7487 59.2586 32.1223C59.2586 32.2416 59.2511 32.3572 59.2399 32.4765C51.8702 32.566 45.2769 35.9254 40.8491 41.1677C40.5094 41.1751 40.1696 41.1826 39.8224 41.1826C28.1965 41.1826 20.3825 36.4958 20.3825 32.1223C20.3825 27.7487 28.1965 23.0619 39.8224 23.0619ZM20.3862 38.7255C24.1532 42.0588 30.7353 44.2996 38.4597 44.5383C37.4405 46.2646 36.6303 48.1288 36.0591 50.0938C26.5426 49.2176 20.3862 45.0901 20.3862 41.205V38.7255ZM20.3862 47.8082C23.6343 50.6829 28.9768 52.7373 35.3423 53.4047C35.178 54.5456 35.0884 55.7089 35.0884 56.8946C35.0884 57.6328 35.1258 58.3636 35.193 59.087C26.173 58.0467 20.3862 54.0535 20.3862 50.2914V47.8119V47.8082ZM20.3862 59.3703V56.8909C23.7015 59.8252 29.2083 61.9057 35.753 62.5247C36.2421 64.5903 36.9925 66.5589 37.9744 68.3859C27.3789 67.9198 20.3862 63.5053 20.3862 59.3666V59.3703ZM59.5461 77.5879C48.1181 77.5879 38.8219 68.3039 38.8219 56.8909C38.8219 45.4778 48.1181 36.1938 59.5461 36.1938C70.9741 36.1938 80.2703 45.4778 80.2703 56.8909C80.2703 68.3039 70.9741 77.5879 59.5461 77.5879Z" fill="white"/>
<path d="M76.1865 51.5181C75.9624 50.8246 75.3502 50.325 74.6259 50.2429L65.1953 49.1542L61.2453 40.5301C60.9429 39.8665 60.2783 39.4414 59.5466 39.4414C58.8148 39.4414 58.154 39.8665 57.8479 40.5301L53.8979 49.1542L44.4673 50.2429C43.743 50.325 43.1307 50.8246 42.9067 51.5181C42.6827 52.2116 42.8806 52.9722 43.4182 53.4681L50.4072 59.8849L48.5293 69.1801C48.3837 69.896 48.6711 70.6268 49.261 71.0556C49.8509 71.4844 50.6386 71.5291 51.2733 71.1712L59.5466 66.5142L67.8199 71.1712C68.1036 71.3315 68.4209 71.4098 68.7383 71.4098C69.1266 71.4098 69.5111 71.2905 69.8359 71.0519C70.4258 70.6231 70.7133 69.8886 70.5676 69.1764L68.6897 59.8812L75.6787 53.4644C76.2163 52.9722 76.4179 52.2079 76.1902 51.5144L76.1865 51.5181ZM65.3819 57.8491C64.9003 58.2891 64.6875 58.9528 64.8144 59.5904L66.095 65.9214L60.4613 62.7484C60.1775 62.5881 59.8602 62.5098 59.5429 62.5098C59.2255 62.5098 58.9119 62.5881 58.6244 62.7484L52.9907 65.9214L54.2713 59.5904C54.4019 58.9528 54.1854 58.2891 53.7038 57.8491L48.9437 53.4793L55.3689 52.7373C56.0185 52.6628 56.5822 52.2564 56.8511 51.6598L59.5429 45.7874L62.2347 51.6598C62.5072 52.2526 63.0709 52.6628 63.7168 52.7373L70.142 53.4793L65.3819 57.8491Z" fill="white"/>
</svg>
