<svg width="28" height="28" viewBox="0 0 28 28" fill="none" xmlns="http://www.w3.org/2000/svg">
<g id="button-setup">
<rect id="Rectangle 2" width="28" height="28" rx="4" fill="#1B1B1D" fill-opacity="0.69"/>
<path id="Vector" d="M14.878 6.13531C14.7369 6.49427 14.5731 6.93967 14.4056 7.41327L14.2212 7.93573H13.9915C13.5568 7.93573 12.8942 8.02406 12.5084 8.13494C12.3767 8.17253 12.2656 8.20072 12.2619 8.19696C12.26 8.1932 12.1941 8.10111 12.1169 7.99211C11.8534 7.61624 11.0441 6.50742 11.0347 6.50742C11.0159 6.50742 10.694 6.63522 10.6225 6.67281C10.5811 6.69348 10.4832 6.74046 10.4061 6.77805C10.3289 6.81376 10.1802 6.89269 10.0767 6.95471C9.97318 7.01485 9.79814 7.11821 9.6871 7.18399C9.48947 7.30051 9.21656 7.49596 9.04341 7.64443L8.95683 7.72148L9.18268 8.20823C9.30879 8.47698 9.50453 8.89795 9.61934 9.14415L9.82826 9.59143L9.68521 9.73614C9.31632 10.112 8.87025 10.6965 8.71968 11.0047C8.68957 11.0648 8.65945 11.1118 8.65004 11.1118C8.64251 11.1118 8.37525 11.0667 8.05717 11.0103C7.43795 10.9013 6.60228 10.7679 6.59475 10.7773C6.5797 10.7923 6.40089 11.2434 6.33126 11.4407C6.23527 11.7151 6.07717 12.4894 6.01129 13.0194L6 13.1133L6.95612 13.4798L7.91225 13.8463L7.91601 14.0248C7.92354 14.3462 7.9593 14.7408 7.99882 14.9438C8.01953 15.0528 8.04964 15.2088 8.0647 15.2877C8.07976 15.3685 8.11363 15.5057 8.1381 15.5941C8.16445 15.6824 8.18515 15.767 8.18515 15.782C8.18515 15.7952 8.01012 15.9324 7.79555 16.0846C7.57911 16.2368 7.20645 16.5056 6.96553 16.6822C6.57405 16.9679 6.52888 17.0073 6.53829 17.0449C6.5797 17.2103 6.94483 17.9169 7.18951 18.3078C7.32878 18.5259 7.60922 18.928 7.68639 19.0182L7.74285 19.0821L8.07223 18.9299C8.39595 18.7777 9.45748 18.2928 9.5704 18.244L9.62687 18.2176L9.88096 18.4526C10.199 18.7495 10.3571 18.8679 10.7881 19.131C11.0479 19.2889 11.1307 19.349 11.1269 19.3753C11.125 19.3941 11.0855 19.6422 11.0385 19.926C10.9557 20.4259 10.8201 21.3317 10.8201 21.3787C10.8201 21.3919 10.8484 21.4125 10.8822 21.4276C11.3057 21.5967 11.684 21.7132 12.228 21.841C12.5912 21.9275 13.1182 22.0177 13.137 21.997C13.1709 21.9594 13.6283 20.7585 13.8052 20.2511L13.8767 20.0387H14.1628C14.6559 20.0387 15.0041 19.9899 15.5029 19.847C15.7325 19.7831 15.7777 19.7756 15.7984 19.7963C15.8116 19.8113 16.0863 20.1947 16.4101 20.6495C16.7338 21.1043 17.0011 21.4802 17.0048 21.4821C17.0105 21.4896 17.1761 21.4125 17.6843 21.1626C17.8951 21.0592 18.1416 20.9183 18.3336 20.7923C18.6065 20.6119 18.9566 20.3545 19.0507 20.2642C19.0846 20.2342 19.0789 20.2173 18.8982 19.8113C18.7947 19.5802 18.599 19.1536 18.4654 18.8641L18.2207 18.3398L18.4409 18.103C18.742 17.7835 19.0149 17.4114 19.2032 17.0656C19.2502 16.9754 19.2973 16.8983 19.3048 16.8946C19.3123 16.8908 19.4836 16.9153 19.685 16.9491C20.7371 17.1257 21.3469 17.2216 21.3676 17.2141C21.409 17.1972 21.7026 16.3627 21.7836 16.0357C21.7986 15.9681 21.8212 15.8948 21.8306 15.8722C21.8475 15.8327 21.968 15.1543 21.9887 14.9795L22 14.8912L21.9097 14.8517C21.793 14.7991 21.0062 14.5022 20.4717 14.3067L20.0426 14.1507V13.8576C20.0426 13.5212 20.0238 13.3295 19.9654 13.0156C19.9315 12.8295 19.8393 12.4255 19.8054 12.3108C19.7979 12.2883 19.8882 12.215 20.1593 12.0214C20.5677 11.7301 21.4674 11.0611 21.4824 11.0348C21.4956 11.0141 21.3676 10.7134 21.2133 10.4071C20.9949 9.96918 20.7126 9.52754 20.4152 9.15355L20.2703 8.97125L20.02 9.08025C19.6737 9.23248 19.1166 9.48807 18.727 9.676L18.4014 9.83387L18.1492 9.59519C17.8819 9.34336 17.5582 9.09153 17.3417 8.96373C17.2288 8.89795 16.9973 8.74573 16.9502 8.70626C16.9427 8.69874 16.9709 8.4751 17.0124 8.20635C17.2232 6.8645 17.2589 6.63522 17.2533 6.62958C17.2495 6.6277 17.1159 6.57508 16.9559 6.51306C16.6171 6.38151 16.2049 6.24432 16.1447 6.24432C16.1221 6.24432 16.0562 6.2274 15.9979 6.20861C15.8473 6.15599 15.0794 6.00188 14.9702 6C14.9401 6 14.9213 6.03007 14.878 6.13531ZM14.5373 11.0648C15.0568 11.1569 15.5989 11.4106 15.9904 11.747C16.4534 12.1455 16.8561 12.8728 16.9653 13.5061C17.0067 13.7448 17.0029 14.1582 16.9578 14.4232C16.875 14.9025 16.6679 15.4099 16.4214 15.735C15.9866 16.312 15.2337 16.7649 14.5016 16.8908C14.287 16.9265 13.873 16.9265 13.6471 16.8908C13.218 16.8213 12.7324 16.6465 12.4312 16.4529C11.7612 16.0207 11.2643 15.2783 11.11 14.4759C11.0648 14.2372 11.0648 13.8031 11.11 13.5456C11.2794 12.589 11.7292 11.9256 12.5423 11.4294C12.7569 11.2979 13.0938 11.1626 13.3516 11.1006C13.7149 11.0141 14.1779 11.0009 14.5373 11.0648Z" fill="white"/>
</g>
</svg>
