<svg width="23" height="20" viewBox="0 0 23 20" fill="none" xmlns="http://www.w3.org/2000/svg">
<g id="Layer_1" clip-path="url(#clip0_443_3343)">
<path id="Vector" d="M22.5426 15.2771L14.1702 1.49889C13.5999 0.56061 12.6014 0 11.5004 0C10.3993 0 9.40184 0.56061 8.83059 1.49889L0.45816 15.2771C-0.133809 16.2508 -0.152555 17.4241 0.40883 18.4165C0.970214 19.4089 1.98643 20.001 3.12794 20.001H19.8728C21.0153 20.001 22.0315 19.4089 22.5919 18.4165C23.1523 17.4241 23.1336 16.2508 22.5426 15.2771ZM21.1307 17.5963C20.8713 18.0556 20.4006 18.329 19.8728 18.329H3.12696C2.59813 18.329 2.1285 18.0546 1.86902 17.5963C1.60954 17.137 1.61842 16.594 1.89171 16.1436L10.2651 2.36538C10.5325 1.92476 10.9834 1.67199 11.5004 1.67199C12.0174 1.67199 12.4673 1.92476 12.7356 2.36538L21.108 16.1426C21.3813 16.5931 21.3902 17.136 21.1307 17.5953V17.5963Z" fill="#FF4228"/>
<path id="Vector_2" d="M11.4901 5.17728C10.913 5.17728 10.4453 5.64347 10.4453 6.21883V12.6826C10.4453 13.2579 10.913 13.7241 11.4901 13.7241C12.0673 13.7241 12.535 13.2579 12.535 12.6826V6.21883C12.535 5.64347 12.0673 5.17728 11.4901 5.17728Z" fill="#FF4228"/>
<path id="Vector_3" d="M11.4901 14.2218C10.9425 14.2218 10.4985 14.6644 10.4985 15.2102C10.4985 15.7561 10.9425 16.1987 11.4901 16.1987C12.0377 16.1987 12.4816 15.7561 12.4816 15.2102C12.4816 14.6644 12.0377 14.2218 11.4901 14.2218Z" fill="#FF4228"/>
</g>
<defs>
<clipPath id="clip0_443_3343">
<rect width="23" height="20" fill="white"/>
</clipPath>
</defs>
</svg>
