<svg width="32" height="32" viewBox="0 0 32 32" fill="none" xmlns="http://www.w3.org/2000/svg">
<rect width="32" height="32" rx="4" fill="#1B1B1D" fill-opacity="0.69"/>
<path d="M10.1319 11.6703H23.0102C23.5565 11.6703 23.9996 11.1233 23.9996 10.4489C23.9996 9.77454 23.5565 9.22754 23.0102 9.22754H10.1319C9.58557 9.22754 9.14246 9.77454 9.14246 10.4489C9.14246 11.1233 9.58557 11.6703 10.1319 11.6703Z" fill="white"/>
<path d="M23.0102 14.3337H10.1319C9.58557 14.3337 9.14246 14.8807 9.14246 15.5551C9.14246 16.2295 9.58557 16.7765 10.1319 16.7765H23.0102C23.5565 16.7765 23.9996 16.2295 23.9996 15.5551C23.9996 14.8807 23.5565 14.3337 23.0102 14.3337Z" fill="white"/>
<path d="M23.0102 19.4409H10.1319C9.58557 19.4409 9.14246 19.9879 9.14246 20.6623C9.14246 21.3367 9.58557 21.8837 10.1319 21.8837H23.0102C23.5565 21.8837 23.9996 21.3367 23.9996 20.6623C23.9996 19.9879 23.5565 19.4409 23.0102 19.4409Z" fill="white"/>
</svg>
