<svg width="53" height="69" viewBox="0 0 53 69" fill="none" xmlns="http://www.w3.org/2000/svg">
<g clip-path="url(#clip0_1_368)">
<path d="M52.9981 46.6054C52.9981 46.5585 52.9936 46.5139 52.9846 46.4693C52.9846 46.4604 52.9801 46.4515 52.9778 46.4425C52.9688 46.4068 52.9575 46.3711 52.944 46.3377C52.9395 46.3265 52.935 46.3131 52.9305 46.302C52.9125 46.2618 52.8922 46.2239 52.8674 46.1882V46.1838H52.8651L44.0829 33.1114C43.9364 32.8928 43.6907 32.7634 43.4269 32.7634H35.0076L50.3743 17.5563C50.7462 17.1904 50.9491 16.7019 50.9491 16.1821C50.9491 15.6623 50.7439 15.176 50.3743 14.808L35.9837 0.568944C35.2172 -0.187288 33.9729 -0.187288 33.2088 0.568944L7.48647 26.022C7.11453 26.3879 6.91165 26.8764 6.91165 27.3962C6.91165 27.916 7.11678 28.4023 7.48647 28.7704L11.5214 32.7634H9.78797C9.52649 32.7634 9.28304 32.8906 9.13652 33.1047L0.137879 46.1793C0.137879 46.1793 0.13337 46.1882 0.131116 46.1905C0.108575 46.2261 0.088287 46.2618 0.0725079 46.2975C0.0679995 46.3087 0.061237 46.3221 0.0567287 46.3332C0.0432037 46.3689 0.0296787 46.4068 0.0229162 46.4448C0.0229162 46.4515 0.0184078 46.4581 0.0184078 46.4648C0.00939115 46.5095 0.00488281 46.5563 0.00488281 46.6031C0.00488281 46.6076 0.00488281 46.6121 0.00488281 46.6188V68.2193C0.00488281 68.6499 0.358787 69.0001 0.793842 69.0001H52.2114C52.6465 69.0001 53.0004 68.6499 53.0004 68.2193V46.6188C53.0004 46.6188 53.0004 46.6098 53.0004 46.6054H52.9981ZM8.48957 27.3962C8.48957 27.3382 8.5031 27.2244 8.60228 27.1263L34.3223 1.67318C34.4734 1.52371 34.7168 1.52371 34.8656 1.67318L49.2539 15.9122C49.3531 16.0103 49.3667 16.1219 49.3667 16.1821C49.3667 16.2423 49.3531 16.3539 49.2539 16.452L25.5942 39.8662H20.9258L13.9785 32.991L8.59777 27.6661C8.49859 27.568 8.48506 27.4564 8.48506 27.3962H8.48957ZM28.9304 38.7776H40.5889C40.8932 38.7776 41.1389 39.0208 41.1389 39.3219C41.1389 39.6231 40.891 39.8662 40.5889 39.8662H27.8303L28.9304 38.7776ZM18.6987 39.8662H12.9483C12.644 39.8662 12.3983 39.6231 12.3983 39.3219C12.3983 39.0208 12.6463 38.7776 12.9483 38.7776H17.5987L18.6987 39.8662ZM10.205 34.325H13.0971L16.0185 37.2161H12.9461C11.7716 37.2161 10.8181 38.1619 10.8181 39.3219C10.8181 40.4819 11.7739 41.4278 12.9461 41.4278H40.5844C41.7588 41.4278 42.7123 40.4819 42.7123 39.3219C42.7123 38.1619 41.7566 37.2161 40.5844 37.2161H30.5038L33.4252 34.325H43.0009L50.7372 45.8402H2.28159L10.205 34.325ZM51.4225 67.4408H1.57829V47.4018H51.4225V67.4408Z" fill="white"/>
</g>
<defs>
<clipPath id="clip0_1_368">
<rect width="53" height="69" fill="white"/>
</clipPath>
</defs>
</svg>
