<svg width="16" height="19" viewBox="0 0 16 19" fill="none" xmlns="http://www.w3.org/2000/svg">
<g clip-path="url(#clip0_1_126)">
<path d="M12.1441 18.9999L8.23232 17.5321L3.79028 18.9999V8.72656H12.1441V18.9999Z" fill="#6D6E71"/>
<path d="M7.9993 0L9.0027 0.381826L10.0703 0.269768L10.9383 0.896461L12.0003 1.06247L12.6744 1.88976L13.6569 2.32278L14.0923 3.29533L14.9282 3.96491L15.0957 5.01631L15.7265 5.87819L15.6134 6.93651L16 7.92981L15.6134 8.92449L15.7265 9.98282L15.0957 10.8433L14.9282 11.8961L14.0923 12.5643L13.6569 13.5382L12.6744 13.9699L12.0003 14.7985L10.9383 14.9645L10.0703 15.5899L9.0027 15.4778L7.9993 15.861L6.9973 15.4778L5.9297 15.5899L5.06027 14.9645L3.99965 14.7985L3.3242 13.9699L2.34313 13.5382L1.90632 12.5643L1.07178 11.8961L0.904317 10.8433L0.272133 9.98282L0.385172 8.92449L0 7.92981L0.385172 6.93651L0.272133 5.87819L0.904317 5.01631L1.07178 3.96491L1.90632 3.29533L2.34313 2.32278L3.3242 1.88976L3.99965 1.06247L5.06027 0.896461L5.9297 0.269768L6.9973 0.381826L7.9993 0Z" fill="#F4C639"/>
<path d="M7.9672 14.4389C11.5812 14.4389 14.5109 11.5346 14.5109 7.95198C14.5109 4.36937 11.5812 1.46509 7.9672 1.46509C4.35319 1.46509 1.42346 4.36937 1.42346 7.95198C1.42346 11.5346 4.35319 14.4389 7.9672 14.4389Z" fill="#F1B239"/>
</g>
<defs>
<clipPath id="clip0_1_126">
<rect width="16" height="19" fill="white"/>
</clipPath>
</defs>
</svg>
