<svg width="17" height="20" viewBox="0 0 17 20" fill="none" xmlns="http://www.w3.org/2000/svg">
<g clip-path="url(#clip0_1_134)">
<path d="M12.9031 20.0001L8.74689 18.455L4.02722 20.0001V9.18604H12.9031V20.0001Z" fill="#6D6E71"/>
<path d="M8.49926 0L9.56537 0.401922L10.6997 0.283967L11.622 0.943644L12.7504 1.11839L13.4665 1.98922L14.5104 2.44503L14.973 3.46876L15.8612 4.17358L16.0392 5.28033L16.7094 6.18756L16.5893 7.30159L17 8.34717L16.5893 9.3942L16.7094 10.5082L16.0392 11.414L15.8612 12.5222L14.973 13.2256L14.5104 14.2508L13.4665 14.7051L12.7504 15.5774L11.622 15.7521L10.6997 16.4104L9.56537 16.2924L8.49926 16.6958L7.43463 16.2924L6.30031 16.4104L5.37654 15.7521L4.24963 15.5774L3.53197 14.7051L2.48958 14.2508L2.02547 13.2256L1.13877 12.5222L0.960837 11.414L0.289141 10.5082L0.409245 9.3942L0 8.34717L0.409245 7.30159L0.289141 6.18756L0.960837 5.28033L1.13877 4.17358L2.02547 3.46876L2.48958 2.44503L3.53197 1.98922L4.24963 1.11839L5.37654 0.943644L6.30031 0.283967L7.43463 0.401922L8.49926 0Z" fill="#CB6538"/>
<path d="M8.46518 15.1989C12.3051 15.1989 15.4179 12.1417 15.4179 8.37055C15.4179 4.59937 12.3051 1.54224 8.46518 1.54224C4.62529 1.54224 1.51245 4.59937 1.51245 8.37055C1.51245 12.1417 4.62529 15.1989 8.46518 15.1989Z" fill="#A14F29"/>
</g>
<defs>
<clipPath id="clip0_1_134">
<rect width="17" height="20" fill="white"/>
</clipPath>
</defs>
</svg>
