<svg width="440" height="505" viewBox="0 0 440 505" fill="none" xmlns="http://www.w3.org/2000/svg">
<path d="M140.542 358.236C115.707 358.236 93.4822 350.524 77.4009 334.423C34.5111 291.482 51.2312 204.867 114.655 141.349C178.097 77.8314 264.609 61.1103 307.499 104.051C350.388 146.992 333.687 233.607 270.245 297.125C230.605 336.812 181.929 358.254 140.542 358.254V358.236ZM244.019 99.0856C208.043 99.0856 164.345 118.873 128.275 154.967C72.3473 210.961 55.6272 285.351 91.0211 320.787C126.415 356.223 200.716 339.483 256.643 283.489C312.571 227.494 329.272 153.105 293.897 117.669C281.329 105.086 263.839 99.0856 244.019 99.0856Z" fill="#FF4228"/>
<path d="M103.683 333.483L136.766 366.606C153.354 383.214 179.336 388.857 209.902 382.499C241.933 375.822 274.791 356.938 302.388 329.307C329.986 301.677 348.866 268.78 355.516 236.711C361.866 206.109 356.23 180.096 339.642 163.488L306.559 130.365V103.111L353.262 149.87C374.604 171.218 382.099 203.457 374.378 240.642C366.957 276.341 346.236 312.68 316.008 342.944C285.781 373.208 249.504 393.954 213.828 401.383C204.303 403.377 195.098 404.355 186.306 404.355C160.869 404.355 139.02 396.136 123.164 380.261L76.4609 333.502H103.683V333.483Z" fill="#FF4228"/>
<path d="M121.455 148.158C148.771 120.81 180.37 102.49 210.372 94.3834V0.0376179L0 122.616V366.474L78.3587 320.862C46.9664 279.708 64.9076 204.773 121.455 148.158ZM309.189 336.116C249.41 395.966 169.154 412.669 129.965 373.414L91.8851 335.289L9.61872 383.176L220.009 504.701L430.4 383.176L323.204 320.787C318.827 326.016 314.186 331.151 309.208 336.135L309.189 336.116ZM263.444 290.298C264.346 289.395 265.229 288.454 266.112 287.551C265.229 288.473 264.364 289.395 263.444 290.298ZM229.628 0V90.5652C257.808 87.0667 283.301 93.4429 300.698 110.86C302.67 112.835 304.493 114.942 306.183 117.123L306.578 116.728L346.462 156.66C379.244 189.482 372.932 251.062 335.002 305.345L440 366.455V121.995L229.628 0Z" fill="#FF4228"/>
</svg>
